<?xml version="1.0" standalone="no"?>
<!DOCTYPE svg PUBLIC "-//W3C//DTD SVG 20010904//EN"
 "http://www.w3.org/TR/2001/REC-SVG-20010904/DTD/svg10.dtd">
<svg version="1.0" xmlns="http://www.w3.org/2000/svg"
 width="700.000000pt" height="700.000000pt" viewBox="0 0 700.000000 700.000000"
 preserveAspectRatio="xMidYMid meet">
<metadata>
Created by potrace 1.14, written by Peter Selinger 2001-2017
</metadata>
<g transform="translate(0.000000,700.000000) scale(0.100000,-0.100000)"
fill="#000000" stroke="none">
<path d="M2348 6178 c-2 -7 -3 -178 -2 -380 0 -327 -1 -368 -15 -372 -9 -2
-179 -4 -379 -4 -199 1 -365 -2 -369 -5 -3 -4 -6 -177 -6 -385 l0 -378 -381 0
-381 0 -3 -1922 -2 -1922 767 2 768 3 1 755 c0 416 3 761 7 766 4 7 388 10
1153 10 l1148 -1 0 -767 0 -768 768 0 768 0 0 1920 c0 1529 -3 1920 -12 1921
-7 1 -179 2 -383 3 l-370 1 -2 370 c-1 204 -2 377 -2 385 -1 13 -50 15 -383
15 l-383 0 0 383 0 382 -1151 0 c-913 0 -1153 -3 -1156 -12z m1528 -760 c5 -4
9 -160 9 -385 l0 -379 373 0 c206 1 379 -2 385 -6 8 -4 11 -230 11 -767 1
-419 -1 -762 -4 -762 -3 -1 -521 -2 -1152 -3 -761 -1 -1148 2 -1149 9 -5 53
-2 1510 3 1518 4 7 123 11 385 11 l378 1 0 380 c0 359 1 380 18 385 25 7 731
5 743 -2z"/>
</g>
</svg>
